<svg width="21" height="21" viewBox="0 0 21 21" fill="none" xmlns="http://www.w3.org/2000/svg">
<path d="M7.875 7.87501C7.87509 7.4167 8.00116 6.96724 8.23943 6.57573C8.47771 6.18423 8.81902 5.86577 9.22607 5.65514C9.63311 5.44451 10.0902 5.34983 10.5474 5.38144C11.0047 5.41306 11.4444 5.56974 11.8186 5.83439C12.1928 6.09903 12.487 6.46144 12.6691 6.882C12.8512 7.30257 12.9143 7.76511 12.8513 8.21907C12.7883 8.67303 12.6017 9.10094 12.312 9.45604C12.0222 9.81113 11.6404 10.0797 11.2083 10.2325C10.9645 10.3187 10.7534 10.4784 10.6042 10.6896C10.4549 10.9008 10.3749 11.1531 10.375 11.4117V12.25" stroke="white" stroke-width="1.5" stroke-linecap="round" stroke-linejoin="round"/>
<path d="M10.375 14.75C10.3132 14.75 10.2528 14.7683 10.2014 14.8027C10.15 14.837 10.1099 14.8858 10.0863 14.9429C10.0626 15 10.0564 15.0628 10.0685 15.1235C10.0806 15.1841 10.1103 15.2398 10.154 15.2835C10.1977 15.3272 10.2534 15.3569 10.314 15.369C10.3747 15.3811 10.4375 15.3749 10.4946 15.3512C10.5517 15.3276 10.6005 15.2875 10.6348 15.2361C10.6692 15.1847 10.6875 15.1243 10.6875 15.0625C10.6875 14.9796 10.6546 14.9001 10.596 14.8415C10.5374 14.7829 10.4579 14.75 10.375 14.75Z" fill="white" stroke="white" stroke-linecap="round" stroke-linejoin="round"/>
<path d="M1 10.375C1 12.8614 1.98772 15.246 3.74587 17.0041C5.50403 18.7623 7.8886 19.75 10.375 19.75C12.8614 19.75 15.246 18.7623 17.0041 17.0041C18.7623 15.246 19.75 12.8614 19.75 10.375C19.75 7.8886 18.7623 5.50403 17.0041 3.74587C15.246 1.98772 12.8614 1 10.375 1C7.8886 1 5.50403 1.98772 3.74587 3.74587C1.98772 5.50403 1 7.8886 1 10.375V10.375Z" stroke="white" stroke-width="1.5"/>
</svg>
