<svg xmlns="http://www.w3.org/2000/svg" width="601.185" height="98.636" viewBox="0 0 601.185 98.636"><defs><style>.a{fill:rgb(54,75,68);}</style></defs><g transform="translate(0.001 -1.441)"><g transform="translate(-0.001 1.441)"><path class="a" d="M16.819,2.663a14.394,14.394,0,0,1,.725,2.632c.328,1.492.737,3.422,1.217,5.785s1.024,5.072,1.638,8.114,1.234,6.271,1.884,9.67,1.3,6.879,1.989,10.442,1.351,7.032,1.995,10.413,1.264,6.569,1.854,9.582,1.117,5.663,1.579,7.95.848,4.142,1.164,5.54a11.882,11.882,0,0,0,.638,2.328,3.885,3.885,0,0,0,.883.913.744.744,0,0,0,.86.059,2.319,2.319,0,0,0,.778-1.082,11.492,11.492,0,0,0,.638-2.439Q35.6,67.145,36.6,61.319q1-5.809,1.995-11.659t1.995-11.518c.661-3.791,1.3-7.388,1.907-10.8s1.188-6.581,1.72-9.5,1.018-5.475,1.439-7.675S46.437,6.213,46.73,4.9a13.874,13.874,0,0,1,.614-2.24A6.924,6.924,0,0,1,48.537.972a4.917,4.917,0,0,1,1.3-.965,4.619,4.619,0,0,1,1.275-.445,5.763,5.763,0,0,1,1.053-.111h1.521c.8,0,1.72.006,2.767.023S58.622-.5,59.8-.5s2.293.012,3.323.029,1.919.035,2.632.053,1.152.035,1.3.035A2.6,2.6,0,0,1,68.31.007a.782.782,0,0,1,.357.638,1.33,1.33,0,0,1-.275.749,3.888,3.888,0,0,1-.608.661c-.222.187-.48.386-.772.608a5.118,5.118,0,0,0-.837.8,4.244,4.244,0,0,0-.661,1.164,4.488,4.488,0,0,0-.275,1.638q0,.377-.035,2.878c-.018,1.656-.023,3.843-.023,6.534V48.087q0,6.142.023,11.963t.035,11.056V89.462a8.246,8.246,0,0,0,.608,2.825,5.462,5.462,0,0,0,1.439,2.164A6.648,6.648,0,0,1,68.5,95.64c.181.281.228.48.14.614a.771.771,0,0,1-.585.222c-.292.018-.591.023-.883.023H49.508c-.965,0-1.5-.105-1.638-.3s.175-.6.913-1.193a8.83,8.83,0,0,0,1.3-1.656,4.77,4.77,0,0,0,.8-2.662c0-.187-.006-1.17-.023-2.96s-.029-4.083-.029-6.874V49.7q0-5.317-.029-9.588c-.023-2.843-.029-5.165-.029-6.979v-3.1a1.445,1.445,0,0,0-.333-1.059,1.016,1.016,0,0,0-.749-.322,1.483,1.483,0,0,0-.854.3,1.758,1.758,0,0,0-.661.807c0,.252-.152,1.357-.445,3.288s-.679,4.428-1.141,7.453-.983,6.447-1.579,10.249-1.2,7.687-1.831,11.635-1.246,7.81-1.849,11.577-1.17,7.154-1.661,10.161-.907,5.464-1.217,7.342a30.774,30.774,0,0,1-.591,3.1,4.785,4.785,0,0,1-.714,1.416,1.618,1.618,0,0,1-1.164.526H31.748c-1.129,0-2.223.006-3.288.029s-1.813.023-2.217.023a3.838,3.838,0,0,1-1.275-.246,5.834,5.834,0,0,1-1.527-.831,7.765,7.765,0,0,1-1.55-1.55,9.825,9.825,0,0,1-1.3-2.352,27.926,27.926,0,0,1-.854-3.662q-.588-2.992-1.363-7.365t-1.656-9.8q-.886-5.44-1.8-11c-.608-3.709-1.2-7.336-1.773-10.857s-1.076-6.681-1.521-9.471-.825-5.066-1.141-6.815A26.8,26.8,0,0,0,9.9,29.753a1.886,1.886,0,0,0-.667-.807,1.486,1.486,0,0,0-.86-.3,1.012,1.012,0,0,0-.743.322,1.446,1.446,0,0,0-.339,1.059v3.1c0,1.813-.006,4.136-.023,6.979S7.237,46.15,7.237,49.7V80.852c0,2.79-.006,5.078-.023,6.874s-.023,2.773-.023,2.96a4.724,4.724,0,0,0,.8,2.662A9.423,9.423,0,0,0,9.285,95c.743.591,1.053.989.918,1.193s-.679.3-1.632.3H-1.953c-.3,0-.6-.006-.889-.023a.766.766,0,0,1-.579-.222c-.094-.135-.047-.333.135-.614a6.947,6.947,0,0,1,1.223-1.188A5.588,5.588,0,0,0-.625,92.288a8.237,8.237,0,0,0,.6-2.825V80.325c0-2.656.018-5.733.035-9.219s.023-7.178.023-11.056V48.087q0-6.151.029-12.027t.029-11.1V15.678c0-2.691-.012-4.879-.029-6.534S.036,6.518.036,6.266A4.368,4.368,0,0,0-.239,4.628,4.408,4.408,0,0,0-.906,3.464a4.864,4.864,0,0,0-.831-.8c-.292-.222-.55-.421-.772-.608a3.916,3.916,0,0,1-.614-.661A1.33,1.33,0,0,1-3.4.644.774.774,0,0,1-3.035.007a2.591,2.591,0,0,1,1.24-.386c.117,0,.509-.012,1.193-.035S.9-.444,1.838-.467,3.8-.5,4.886-.5,7.009-.5,7.992-.526s1.837-.023,2.574-.023h1.439a5.756,5.756,0,0,1,1.047.111,4.554,4.554,0,0,1,1.275.445,4.94,4.94,0,0,1,1.3.965,6.761,6.761,0,0,1,1.188,1.691" transform="translate(3.468 0.549)"/></g><g transform="translate(82.759 19.216)"><path class="a" d="M40.7,33.347V33.4a71.338,71.338,0,0,1-1.141,14.736,46.181,46.181,0,0,1-3.352,10.723,27.538,27.538,0,0,1-4.785,7.283A25.6,25.6,0,0,1,25.96,70.6a19.163,19.163,0,0,1-5.37,2.24,20.479,20.479,0,0,1-4.539.614,19.914,19.914,0,0,1-4.458-.614A18.885,18.885,0,0,1,6.275,70.6,25.37,25.37,0,0,1,.87,66.142a27.94,27.94,0,0,1-4.762-7.283A46.464,46.464,0,0,1-7.243,48.136,71.747,71.747,0,0,1-8.384,33.4v-.222A71.747,71.747,0,0,1-7.243,18.442,46.41,46.41,0,0,1-3.892,7.725,27.979,27.979,0,0,1,.87.436,25.37,25.37,0,0,1,6.275-4.021a18.885,18.885,0,0,1,5.318-2.24,19.914,19.914,0,0,1,4.458-.614,20.479,20.479,0,0,1,4.539.614,19.163,19.163,0,0,1,5.37,2.24A25.6,25.6,0,0,1,31.424.436a27.576,27.576,0,0,1,4.785,7.289,46.128,46.128,0,0,1,3.352,10.717A71.338,71.338,0,0,1,40.7,33.178v.053ZM22.474,4.818q-.667-1.939-1.217-3.375A11.016,11.016,0,0,0,20.034-.944a4.438,4.438,0,0,0-1.55-1.416,4.723,4.723,0,0,0-2.211-.468,5.2,5.2,0,0,0-2.357.468A4.452,4.452,0,0,0,12.342-.944a11.012,11.012,0,0,0-1.228,2.387q-.544,1.439-1.269,3.375a36.642,36.642,0,0,0-1.386,6.92q-.544,4.493-.8,10.027T7.41,33.347q0,6.028.275,11.577t.8,10a34.822,34.822,0,0,0,1.357,6.844c.486,1.287.907,2.416,1.269,3.375a10.956,10.956,0,0,0,1.228,2.381,4.4,4.4,0,0,0,1.574,1.416,5.124,5.124,0,0,0,2.357.468,4.507,4.507,0,0,0,2.188-.468,4.494,4.494,0,0,0,1.515-1.416A10.956,10.956,0,0,0,21.2,65.141c.363-.959.79-2.088,1.269-3.375A39.124,39.124,0,0,0,23.8,54.922q.562-4.458.831-10t.3-11.577q.035-6.037-.246-11.583T23.86,11.738a36.179,36.179,0,0,0-1.386-6.92" transform="translate(8.392 6.876)"/></g><g transform="translate(140.81 19.216)"><path class="a" d="M40.7,33.347V33.4a71.338,71.338,0,0,1-1.141,14.736,46.181,46.181,0,0,1-3.352,10.723,27.538,27.538,0,0,1-4.785,7.283A25.6,25.6,0,0,1,25.96,70.6a19.163,19.163,0,0,1-5.37,2.24,20.479,20.479,0,0,1-4.539.614,19.914,19.914,0,0,1-4.458-.614A18.885,18.885,0,0,1,6.275,70.6,25.37,25.37,0,0,1,.87,66.142a27.94,27.94,0,0,1-4.762-7.283A46.464,46.464,0,0,1-7.243,48.136,71.747,71.747,0,0,1-8.384,33.4v-.222A71.747,71.747,0,0,1-7.243,18.442,46.41,46.41,0,0,1-3.892,7.725,27.979,27.979,0,0,1,.87.436,25.37,25.37,0,0,1,6.275-4.021a18.885,18.885,0,0,1,5.318-2.24,19.914,19.914,0,0,1,4.458-.614,20.479,20.479,0,0,1,4.539.614,19.163,19.163,0,0,1,5.37,2.24A25.6,25.6,0,0,1,31.424.436a27.576,27.576,0,0,1,4.785,7.289,46.128,46.128,0,0,1,3.352,10.717A71.338,71.338,0,0,1,40.7,33.178v.053ZM22.474,4.818q-.667-1.939-1.217-3.375A11.289,11.289,0,0,0,20.04-.944,4.5,4.5,0,0,0,18.484-2.36a4.723,4.723,0,0,0-2.211-.468,5.2,5.2,0,0,0-2.357.468A4.452,4.452,0,0,0,12.342-.944a11.012,11.012,0,0,0-1.228,2.387q-.544,1.439-1.269,3.375a36.642,36.642,0,0,0-1.386,6.92q-.544,4.493-.8,10.027T7.41,33.347q0,6.028.275,11.577t.8,10a34.822,34.822,0,0,0,1.357,6.844c.486,1.287.907,2.416,1.269,3.375a10.956,10.956,0,0,0,1.228,2.381,4.4,4.4,0,0,0,1.574,1.416,5.124,5.124,0,0,0,2.357.468,4.507,4.507,0,0,0,2.188-.468,4.494,4.494,0,0,0,1.515-1.416A10.956,10.956,0,0,0,21.2,65.141c.363-.959.79-2.088,1.269-3.375A39.124,39.124,0,0,0,23.8,54.922q.562-4.458.831-10t.3-11.577q.035-6.037-.246-11.583T23.86,11.738a36.179,36.179,0,0,0-1.386-6.92" transform="translate(8.392 6.876)"/></g><g transform="translate(198.304 19.722)"><path class="a" d="M2.858,59.469V52.215q0-3.1.035-7.149t.023-8.558V27.236q0-4.773.023-9.307t.035-8.617V2.082q0-3.15-.035-5.154C2.923-4.4,2.917-5.2,2.917-5.453a4.332,4.332,0,0,0-.281-1.632,4.108,4.108,0,0,0-.667-1.164,4.624,4.624,0,0,0-.825-.8C.852-9.273.588-9.477.366-9.665a3.547,3.547,0,0,1-.608-.667,1.271,1.271,0,0,1-.275-.743.79.79,0,0,1,.357-.638A2.821,2.821,0,0,1,1.086-12.1c.187,0,.632-.006,1.328-.023s1.474-.035,2.3-.053,1.638-.041,2.416-.059,1.328-.023,1.661-.023a5.866,5.866,0,0,1,1.053.111,4.56,4.56,0,0,1,1.269.439,5.1,5.1,0,0,1,1.3.971A6.812,6.812,0,0,1,13.61-9.05c.181.369.6,1.264,1.246,2.685S16.3-3.189,17.231-1.1s1.977,4.417,3.106,7,2.281,5.212,3.463,7.868,2.34,5.253,3.487,7.78,2.17,4.809,3.077,6.844,1.667,3.7,2.3,5.013,1.012,2.077,1.164,2.3a3.43,3.43,0,0,0,.936.913.975.975,0,0,0,.971.082,1.856,1.856,0,0,0,.8-1.047,8.565,8.565,0,0,0,.445-2.5c.041-.55.064-1.509.082-2.878s.035-2.983.035-4.85v-12.9c0-2.276-.012-4.475-.035-6.622s-.023-4.077-.023-5.815v-6.37a4.467,4.467,0,0,0-.222-1.41,6.659,6.659,0,0,0-.556-1.275,5.171,5.171,0,0,0-.714-.994c-.263-.281-.462-.491-.614-.638q-1.106-.9-.913-1.193c.129-.2.673-.31,1.632-.31h9.863c.292,0,.591.018.889.035a.745.745,0,0,1,.579.222c.094.129.047.333-.135.608a7.043,7.043,0,0,1-1.228,1.188,5.535,5.535,0,0,0-1.433,2.159,8.6,8.6,0,0,0-.614,2.831V65.98q0,.465-.772.526c-1.293,0-2.4.006-3.323.029s-1.884.023-2.884.023H34.1a1.688,1.688,0,0,1-.942-.246,2.579,2.579,0,0,1-.749-.831,13.024,13.024,0,0,1-.778-1.55c-.269-.643-.6-1.433-.959-2.352-.193-.445-.573-1.316-1.17-2.609s-1.31-2.831-2.159-4.627-1.79-3.75-2.825-5.9-2.077-4.3-3.13-6.482-2.077-4.305-3.077-6.37-1.889-3.925-2.685-5.563-1.451-3.007-1.966-4.077-.813-1.679-.889-1.825a1.762,1.762,0,0,0-.714-.807,1.958,1.958,0,0,0-1.006-.3,1.232,1.232,0,0,0-.854.328A1.364,1.364,0,0,0,9.843,24.4c0,.333-.012,1.152-.029,2.463s-.035,2.942-.053,4.873S9.72,35.876,9.7,38.316s-.029,4.943-.029,7.535S9.679,51,9.7,53.572s.047,4.937.082,7.119a4.77,4.77,0,0,0,.8,2.662,9.081,9.081,0,0,0,1.3,1.656Q13,65.895,12.8,66.2c-.129.2-.673.3-1.632.3H.922c-.292,0-.591-.006-.883-.023a.781.781,0,0,1-.585-.222c-.088-.135-.041-.333.14-.614A6.648,6.648,0,0,1,.811,64.459,5.462,5.462,0,0,0,2.25,62.294a8.246,8.246,0,0,0,.608-2.825" transform="translate(0.589 12.262)"/></g><g transform="translate(256.48 1.553)"><path class="a" d="M22.615,35.7a39.187,39.187,0,0,1-5.236.3c-.661,0-1.363-.006-2.1-.023s-1.515-.047-2.328-.082V82.538c.041.521.053,1.053.053,1.609a15.915,15.915,0,0,0,.082,1.609,6.313,6.313,0,0,0,.31,1.41,2.431,2.431,0,0,0,.661,1.03c.445.4.667.7.667.883,0,.292-.445.5-1.328.608l-16.731-.058c-.883,0-1.328-.181-1.328-.55a1.312,1.312,0,0,1,.357-.608A12,12,0,0,0-3.5,87.306a10.063,10.063,0,0,0,.8-1.667,6.538,6.538,0,0,0,.409-2.1V-1.22A6.57,6.57,0,0,0-2.7-3.32a10.294,10.294,0,0,0-.8-1.667,11.827,11.827,0,0,0-.807-1.158,1.321,1.321,0,0,1-.357-.614c0-.363.445-.544,1.328-.544L13.4-7.362c.883.105,1.328.328,1.328.661,0,.222-.222.5-.667.831a2.361,2.361,0,0,0-.661,1.03,6.188,6.188,0,0,0-.31,1.4A16.24,16.24,0,0,0,13-1.8c0,.573-.012,1.1-.053,1.585V29.749c.667.035,1.3.053,1.907.053h1.749a37.6,37.6,0,0,0,5.844-.386A10.669,10.669,0,0,0,26.8,27.755V-.213c-.035-.486-.058-1.012-.058-1.585a16.287,16.287,0,0,0-.076-1.638,6.188,6.188,0,0,0-.31-1.4,2.361,2.361,0,0,0-.661-1.03c-.445-.328-.667-.608-.667-.831,0-.333.445-.556,1.328-.661L43.306-7.3c.883,0,1.328.181,1.328.544a1.321,1.321,0,0,1-.357.614,10.952,10.952,0,0,0-.8,1.158,11.954,11.954,0,0,0-.837,1.667,5.5,5.5,0,0,0-.392,2.1V83.539a5.483,5.483,0,0,0,.392,2.1,11.639,11.639,0,0,0,.837,1.667,11.108,11.108,0,0,0,.8,1.164,1.312,1.312,0,0,1,.357.608c0,.369-.445.55-1.328.55l-16.953.058c-.883-.111-1.328-.316-1.328-.608,0-.187.222-.48.667-.883a2.431,2.431,0,0,0,.661-1.03,6.313,6.313,0,0,0,.31-1.41,15.944,15.944,0,0,0,.076-1.609c0-.556.023-1.088.058-1.609V34.453A13.619,13.619,0,0,1,22.615,35.7" transform="translate(4.663 7.362)"/></g><g transform="translate(315.791 19.216)"><path class="a" d="M40.7,33.347V33.4a71.338,71.338,0,0,1-1.141,14.736,46.181,46.181,0,0,1-3.352,10.723,27.538,27.538,0,0,1-4.785,7.283A25.749,25.749,0,0,1,25.96,70.6a19.163,19.163,0,0,1-5.37,2.24,20.479,20.479,0,0,1-4.539.614,19.914,19.914,0,0,1-4.458-.614A18.885,18.885,0,0,1,6.275,70.6,25.37,25.37,0,0,1,.87,66.142a27.94,27.94,0,0,1-4.762-7.283A46.464,46.464,0,0,1-7.243,48.136,71.747,71.747,0,0,1-8.384,33.4v-.222A71.747,71.747,0,0,1-7.243,18.442,46.41,46.41,0,0,1-3.892,7.725,27.979,27.979,0,0,1,.87.436,25.37,25.37,0,0,1,6.275-4.021a18.885,18.885,0,0,1,5.318-2.24,19.914,19.914,0,0,1,4.458-.614,20.479,20.479,0,0,1,4.539.614,19.163,19.163,0,0,1,5.37,2.24A25.749,25.749,0,0,1,31.424.436a27.576,27.576,0,0,1,4.785,7.289,46.128,46.128,0,0,1,3.352,10.717A71.338,71.338,0,0,1,40.7,33.178v.053ZM22.474,4.818q-.667-1.939-1.217-3.375A11.016,11.016,0,0,0,20.034-.944a4.438,4.438,0,0,0-1.55-1.416,4.723,4.723,0,0,0-2.211-.468,5.2,5.2,0,0,0-2.357.468A4.452,4.452,0,0,0,12.342-.944a11.012,11.012,0,0,0-1.228,2.387q-.544,1.439-1.269,3.375a36.179,36.179,0,0,0-1.386,6.92q-.544,4.493-.8,10.027T7.41,33.347q0,6.028.275,11.577t.8,10a34.4,34.4,0,0,0,1.357,6.844c.486,1.287.907,2.416,1.269,3.375a10.956,10.956,0,0,0,1.228,2.381,4.4,4.4,0,0,0,1.574,1.416,5.124,5.124,0,0,0,2.357.468,4.507,4.507,0,0,0,2.188-.468,4.494,4.494,0,0,0,1.515-1.416A10.956,10.956,0,0,0,21.2,65.141c.363-.959.79-2.088,1.269-3.375A39.124,39.124,0,0,0,23.8,54.922q.562-4.458.831-10t.3-11.577q.035-6.037-.246-11.583T23.86,11.738a36.179,36.179,0,0,0-1.386-6.92" transform="translate(8.392 6.876)"/></g><g transform="translate(372.076 19.997)"><path class="a" d="M1.105,65.216c-.848-.041-1.293-.187-1.328-.445s.146-.591.55-1c.187-.181.445-.445.778-.772s.667-.7.994-1.106a6.729,6.729,0,0,0,.86-1.363,5.089,5.089,0,0,0,.474-1.579c.035-.515.064-1.831.082-3.925.023-2.112.035-4.721.053-7.839s.041-6.6.058-10.448S3.656,29,3.656,25.051V-7.3a7.271,7.271,0,0,0-.643-2.773,6.306,6.306,0,0,0-1.188-1.878c-.409-.409-.591-.737-.55-1s.474-.4,1.328-.445c.4,0,.959-.006,1.656-.023s1.72-.029,3.054-.029H20.27A2.011,2.011,0,0,1,21.545-13c.187.222-.018.567-.608,1.053a2.418,2.418,0,0,0-.667,1.018,6.717,6.717,0,0,0-.3,1.416,16.2,16.2,0,0,0-.076,1.638c0,.573-.023,1.094-.058,1.574-.041.263-.064,1.34-.064,3.241V4.249c0,2.972.018,6.312.035,10.027s.029,7.511.029,11.378V54.388c0,1.9-.023,2.954-.064,3.176a3.461,3.461,0,0,0,.971,2.831,2.723,2.723,0,0,0,1.5.69,3.958,3.958,0,0,0,2.24-.521c1.182-.6,2.445-1.3,3.791-2.141a21.439,21.439,0,0,0,4.346-3.738,5.3,5.3,0,0,0,.749-.994,2.324,2.324,0,0,1,.755-.831c.216-.111.357.064.415.526a14.012,14.012,0,0,1-.31,3.019q-.439,2.492-.749,4.516a11.609,11.609,0,0,1-.638,2.744,3.581,3.581,0,0,1-1.6,1.4,7.851,7.851,0,0,1-3.323.813c-.4.029-1.293.029-2.662,0s-2.983-.088-4.844-.146-3.837-.117-5.926-.193-4.066-.14-5.932-.193-3.481-.1-4.838-.135a25.434,25.434,0,0,0-2.609,0" transform="translate(0.228 13.447)"/></g><g transform="translate(413.506 19.234)"><path class="a" d="M40.278,32.5a84.691,84.691,0,0,1-2.4,15.461A50.532,50.532,0,0,1,33.691,58.9a28.077,28.077,0,0,1-5.405,7.2,24.906,24.906,0,0,1-6.06,4.235,23.709,23.709,0,0,1-6.177,2.047,41.149,41.149,0,0,1-5.733.667q-6.923.333-10.553.193c-2.416-.088-3.943-.176-4.569-.246A7.669,7.669,0,0,0-6,72.969a6.4,6.4,0,0,1-1.275-.059,1.82,1.82,0,0,1-.883-.3c-.2-.14-.193-.386.029-.714a6.791,6.791,0,0,0,.608-1.416c.181-.573.351-1.2.5-1.884A20.028,20.028,0,0,0-6.7,66.488a11.323,11.323,0,0,0,.058-2.018V54.636c0-2.825.006-6.125.029-9.915s.047-7.891.082-12.326q.061-6.818.088-12.852T-6.416,8.96V1.7c0-1.8-.018-2.779-.058-2.931-.07-.7-.123-1.328-.164-1.884a2.315,2.315,0,0,0-.6-1.439c-.193-.222-.386-.439-.591-.638a.6.6,0,0,1-.216-.585c.058-.181.31-.333.772-.468a10.227,10.227,0,0,1,2.41-.193c.445,0,1.129-.023,2.053-.058s1.966-.058,3.13-.082S2.71-6.612,4-6.635s2.545-.029,3.744-.053,2.281-.018,3.235,0,1.726.047,2.27.088q.562.053,2.053.246a23.6,23.6,0,0,1,3.522.8A32.82,32.82,0,0,1,23.249-3.8,24.008,24.008,0,0,1,28.063-.733,29.105,29.105,0,0,1,32.72,4.058a30.481,30.481,0,0,1,3.96,6.874,43.381,43.381,0,0,1,2.685,9.33,65.407,65.407,0,0,1,.913,12.185ZM11.7,68.395a9.408,9.408,0,0,0,1.445-.187,9.039,9.039,0,0,0,2.322-.831A11.4,11.4,0,0,0,18.1,65.464a10.2,10.2,0,0,0,2.3-3.434A28.789,28.789,0,0,0,22,57.321a52.69,52.69,0,0,0,1.111-6.037q.439-3.431.69-7.845.246-4.4.415-10.155.158-9.486-.117-16.4A38.051,38.051,0,0,0,22.055,5.193a11.1,11.1,0,0,0-2.047-3.68A13.075,13.075,0,0,0,17.4-.838,9.954,9.954,0,0,0,14.8-2.119a7.469,7.469,0,0,0-2.047-.386,2.415,2.415,0,0,0-1.907.72A4.452,4.452,0,0,0,9.923-.148a6.231,6.231,0,0,0-.275,1.8V2.871Q9.6,6.749,9.6,11.4q0,3.984-.029,9.36T9.537,32.336q-.053,6.37-.082,11.887t-.029,9.635v9.611c.041.515.076,1.071.111,1.661a7.711,7.711,0,0,0,.281,1.638,2.908,2.908,0,0,0,.667,1.217,1.4,1.4,0,0,0,1.211.409" transform="translate(8.305 6.701)"/></g><g transform="translate(469.512 19.939)"><path class="a" d="M14.976,60.531a14.2,14.2,0,0,0,.082,1.6,6.3,6.3,0,0,0,.3,1.416,2.375,2.375,0,0,0,.661,1.024c.6.48.8.831.614,1.053a1.978,1.978,0,0,1-1.275.445l-17.117-.053c-.842-.041-1.287-.187-1.328-.445s.152-.591.556-1A6.59,6.59,0,0,0-1.333,62.7,7.494,7.494,0,0,0-.7,59.917V-6.333A7.46,7.46,0,0,0-1.333-9.1a6.763,6.763,0,0,0-1.193-1.889c-.4-.4-.6-.737-.556-.989s.486-.409,1.328-.445l17.117-.059a2.011,2.011,0,0,1,1.275.445c.181.222-.018.573-.614,1.047a2.431,2.431,0,0,0-.661,1.03,6.317,6.317,0,0,0-.3,1.41,14.688,14.688,0,0,0-.082,1.638c0,.573-.018,1.1-.058,1.579v64.26c.041.515.058,1.047.058,1.6" transform="translate(3.088 12.481)"/></g><g transform="translate(499.853 19.722)"><path class="a" d="M2.858,59.469V52.215q0-3.1.035-7.149t.023-8.558V27.236q0-4.773.023-9.307t.035-8.617V2.082q0-3.15-.035-5.154C2.923-4.4,2.917-5.2,2.917-5.453a4.332,4.332,0,0,0-.281-1.632,4.108,4.108,0,0,0-.667-1.164,4.624,4.624,0,0,0-.825-.8C.852-9.273.588-9.477.366-9.665a3.547,3.547,0,0,1-.608-.667,1.271,1.271,0,0,1-.275-.743.79.79,0,0,1,.357-.638A2.821,2.821,0,0,1,1.086-12.1c.187,0,.632-.006,1.328-.023s1.474-.035,2.3-.053,1.638-.041,2.416-.059,1.328-.023,1.661-.023a5.866,5.866,0,0,1,1.053.111,4.56,4.56,0,0,1,1.269.439,5.1,5.1,0,0,1,1.3.971A6.812,6.812,0,0,1,13.61-9.05c.181.369.6,1.264,1.246,2.685S16.3-3.189,17.231-1.1s1.977,4.417,3.106,7,2.281,5.212,3.463,7.868,2.34,5.253,3.487,7.78,2.17,4.809,3.077,6.844,1.667,3.7,2.3,5.013,1.012,2.077,1.164,2.3a3.43,3.43,0,0,0,.936.913.975.975,0,0,0,.971.082,1.856,1.856,0,0,0,.8-1.047,8.565,8.565,0,0,0,.445-2.5c.041-.55.064-1.509.082-2.878s.035-2.983.035-4.85v-12.9c0-2.276-.012-4.475-.035-6.622s-.023-4.077-.023-5.815v-6.37a4.467,4.467,0,0,0-.222-1.41,6.659,6.659,0,0,0-.556-1.275,5.171,5.171,0,0,0-.714-.994c-.263-.281-.462-.491-.614-.638q-1.106-.9-.913-1.193c.129-.2.673-.31,1.632-.31h9.863c.292,0,.591.018.889.035a.745.745,0,0,1,.579.222c.094.129.047.333-.135.608a7.043,7.043,0,0,1-1.228,1.188,5.535,5.535,0,0,0-1.433,2.159,8.6,8.6,0,0,0-.614,2.831V65.98q0,.465-.772.526c-1.293,0-2.4.006-3.323.029s-1.884.023-2.884.023H34.1a1.688,1.688,0,0,1-.942-.246,2.579,2.579,0,0,1-.749-.831,13.024,13.024,0,0,1-.778-1.55c-.269-.643-.6-1.433-.959-2.352-.193-.445-.573-1.316-1.17-2.609s-1.31-2.831-2.159-4.627-1.79-3.75-2.825-5.9-2.077-4.3-3.13-6.482-2.077-4.305-3.077-6.37-1.889-3.925-2.685-5.563-1.451-3.007-1.966-4.077-.813-1.679-.883-1.825a1.809,1.809,0,0,0-.72-.807,1.958,1.958,0,0,0-1.006-.3,1.232,1.232,0,0,0-.854.328A1.364,1.364,0,0,0,9.843,24.4c0,.333-.012,1.152-.029,2.463s-.035,2.942-.053,4.873S9.72,35.876,9.7,38.316s-.029,4.943-.029,7.535S9.679,51,9.7,53.572s.047,4.937.082,7.119a4.77,4.77,0,0,0,.8,2.662,9.081,9.081,0,0,0,1.3,1.656Q13,65.895,12.8,66.2c-.129.2-.673.3-1.632.3H.922c-.292,0-.591-.006-.883-.023a.781.781,0,0,1-.585-.222c-.088-.135-.041-.333.14-.614A6.648,6.648,0,0,1,.811,64.459,5.462,5.462,0,0,0,2.25,62.294a8.246,8.246,0,0,0,.608-2.825" transform="translate(0.589 12.262)"/></g><g transform="translate(556.413 17.723)"><path class="a" d="M35.235,36.924q.105,5.879-.053,11.243c-.041,1.521-.1,3.077-.17,4.686s-.181,3.171-.333,4.68-.31,2.948-.5,4.294a32.026,32.026,0,0,1-.667,3.522,10.949,10.949,0,0,1-3.153,4.7,17.3,17.3,0,0,1-5.294,3.241,21.14,21.14,0,0,1-6.476,1.41,17.265,17.265,0,0,1-6.733-.883,18.552,18.552,0,0,1-6.786-4.235,30.941,30.941,0,0,1-6.259-8.529A53.62,53.62,0,0,1-5.7,48.2,72.555,72.555,0,0,1-7.252,31,77.373,77.373,0,0,1-6.281,19.5a61.177,61.177,0,0,1,2.164-9A37.183,37.183,0,0,1-1.186,3.715,32.087,32.087,0,0,1,2.114-1.1a18.7,18.7,0,0,1,3.264-3.13A19.866,19.866,0,0,1,8.2-6a15.8,15.8,0,0,1,6.534-1.609,22.644,22.644,0,0,1,7.254,1.217c.562.181,1.147.351,1.773.5s1.24.275,1.831.363a7.776,7.776,0,0,0,1.579.111,2.836,2.836,0,0,0,1.141-.252,2,2,0,0,0,.714-.579,6.482,6.482,0,0,1,.445-.532c.111-.1.2-.07.275.117a7.651,7.651,0,0,1,.281,1.275c.041.591.07,1.509.111,2.767s.053,2.556.053,3.9-.029,2.609-.082,3.767a9.3,9.3,0,0,1-.3,2.352c-.181.486-.339.7-.468.643a6.332,6.332,0,0,1-.918-1.854,24.929,24.929,0,0,0-1.188-2.276,17.182,17.182,0,0,0-1.966-2.714,12.857,12.857,0,0,0-2.714-2.322,7.014,7.014,0,0,0-6.868-.3A7.937,7.937,0,0,0,13.164.643a9.812,9.812,0,0,0-1.585,2.8,13.481,13.481,0,0,0-.714,2.907c-.111.924-.222,2.3-.333,4.153s-.216,3.943-.3,6.289-.187,4.838-.275,7.482-.158,5.195-.2,7.669c-.035,1.62-.064,3.481-.082,5.563s-.023,4.253,0,6.487.076,4.475.17,6.733.2,4.37.357,6.365.351,3.8.614,5.405a18.179,18.179,0,0,0,.936,3.791,11.171,11.171,0,0,0,1.825,3.188,5.148,5.148,0,0,0,2.053,1.515,3.566,3.566,0,0,0,2.106.146,4.9,4.9,0,0,0,1.942-.971,6.333,6.333,0,0,0,2.182-3.738,35.973,35.973,0,0,0,.942-6.616c.164-2.627.246-5.6.222-8.921S23,44.014,23,40.247a8.14,8.14,0,0,0-2.357-5.341,8.893,8.893,0,0,0-5.177-2.3,4.3,4.3,0,0,1-.971-.246,1.911,1.911,0,0,1-.749-.445c-.152-.17-.111-.31.111-.439a4.083,4.083,0,0,1,1.661-.2h18.5c.55,0,1.106-.006,1.661-.023a6.877,6.877,0,0,1,1.328.053c.333.058.5.187.5.386s-.275.526-.831.965a3.874,3.874,0,0,0-1.082,1.585,7.968,7.968,0,0,0-.357,2.685" transform="translate(7.265 7.613)"/></g></g></svg>