<svg width="40" height="12" viewBox="0 0 40 12" fill="none" xmlns="http://www.w3.org/2000/svg">
<g clip-path="url(#clip0)">
<path d="M0.38898 1.32725C0.38652 1.16111 0.418847 0.99625 0.483941 0.842965C0.549036 0.689681 0.645502 0.551259 0.767319 0.43634C0.886493 0.317716 1.02897 0.224285 1.18605 0.161761C1.34313 0.0992373 1.5115 0.0689337 1.68087 0.0727035C1.85171 0.068223 2.02168 0.0981652 2.18035 0.160694C2.33903 0.223224 2.48307 0.317022 2.60365 0.43634C2.72541 0.552755 2.82113 0.692947 2.8847 0.84793C2.94826 1.00291 2.97825 1.16927 2.97276 1.33634C2.97786 1.50471 2.94771 1.67232 2.88421 1.82872C2.82071 1.98512 2.72521 2.12697 2.60365 2.24543C2.48594 2.36658 2.34393 2.46227 2.18666 2.52644C2.02939 2.59061 1.86028 2.62184 1.6901 2.61816C1.51859 2.62146 1.34822 2.59008 1.18951 2.52598C1.0308 2.46187 0.887109 2.36639 0.767319 2.24543C0.643835 2.12604 0.546543 1.98294 0.481465 1.82501C0.416387 1.66707 0.384909 1.49765 0.38898 1.32725ZM0.684269 3.19088H2.66824V11.6636H0.684269V3.19088ZM15.7163 5.01816V11.6727H13.7231V5.00907H12.8834V3.19088H13.7324V0.0727035H15.7163V3.18179H16.593V5.00907L15.7163 5.01816ZM19.8781 3.19088V8.05452C19.8781 9.46058 20.4409 10.1636 21.5667 10.1636C22.6925 10.1636 23.2554 9.46058 23.2554 8.05452V3.19088H25.2302V8.09997C25.2423 8.6978 25.155 9.29355 24.9718 9.86361C24.7897 10.3216 24.4948 10.7278 24.1136 11.0454C23.4431 11.6212 22.591 11.9091 21.5575 11.9091C20.524 11.9091 19.672 11.6212 19.0014 11.0454C18.6149 10.7286 18.3138 10.3226 18.1248 9.86361C17.9587 9.46361 17.8787 8.87573 17.8849 8.09997V3.18179L19.8781 3.19088Z" fill="#364B44"/>
<path d="M26.7251 1.3273C26.722 1.16189 26.7531 0.997585 26.8165 0.844414C26.88 0.691243 26.9745 0.552412 27.0942 0.436386C27.2145 0.315441 27.358 0.219358 27.5165 0.153763C27.6749 0.0881689 27.8451 0.0543823 28.017 0.0543823C28.1888 0.0543823 28.359 0.0881689 28.5174 0.153763C28.6759 0.219358 28.8194 0.315441 28.9397 0.436386C29.061 0.553138 29.1565 0.693389 29.22 0.848292C29.2835 1.0032 29.3138 1.16939 29.3088 1.33639C29.3134 1.50469 29.283 1.67214 29.2195 1.82846C29.1561 1.98479 29.0608 2.12669 28.9397 2.24548C28.821 2.36777 28.6775 2.46414 28.5185 2.52835C28.3596 2.59255 28.1887 2.62317 28.017 2.6182C27.8455 2.6215 27.6751 2.59013 27.5164 2.52602C27.3577 2.46192 27.214 2.36644 27.0942 2.24548C26.9724 2.12531 26.8768 1.98187 26.8133 1.82397C26.7498 1.66607 26.7198 1.49705 26.7251 1.3273Z" fill="#DC1D5B"/>
<path d="M27.0204 3.19089H29.0043V11.6636H27.0204V3.19089ZM30.3977 7.36362C30.3883 6.7816 30.5015 6.20399 30.7303 5.66727C30.959 5.13056 31.2982 4.64642 31.7265 4.24544C32.6185 3.38483 33.7043 2.95453 34.9839 2.95453C36.2635 2.95453 37.3493 3.38786 38.2413 4.25453C39.1272 5.1212 39.5701 6.1818 39.5701 7.43635C39.5701 8.70907 39.1241 9.77271 38.2321 10.6273C37.3401 11.4818 36.2451 11.9091 34.947 11.9091C33.6551 11.9091 32.5755 11.4727 31.7081 10.6C30.8345 9.7515 30.3977 8.67574 30.3977 7.37271V7.36362ZM32.4278 7.39998C32.4278 8.24847 32.6585 8.91817 33.1199 9.40907C33.5875 9.9121 34.2088 10.1636 34.9839 10.1636C35.7591 10.1636 36.3804 9.91513 36.8479 9.41817C37.3093 8.92726 37.54 8.26968 37.54 7.44544C37.54 6.6212 37.3124 5.96362 36.8572 5.47271C36.3835 4.97574 35.7621 4.72726 34.9932 4.72726C34.2365 4.72726 33.6213 4.97574 33.1476 5.47271C32.6739 5.96968 32.434 6.6121 32.4278 7.39998ZM9.84745 11.6909V6.81817C9.84745 5.4121 9.28763 4.70907 8.168 4.70907C7.04836 4.70907 6.48547 5.4121 6.47931 6.81817V11.6818H4.48611V6.77271C4.4747 6.1779 4.56198 5.58526 4.74449 5.01817C4.92488 4.5567 5.21996 4.14722 5.60267 3.82726C6.27323 3.2515 7.12833 2.96362 8.168 2.96362C9.20766 2.96362 10.0566 3.2515 10.7149 3.82726C11.1029 4.1464 11.4041 4.55567 11.5915 5.01817C11.7576 5.4121 11.8407 5.99695 11.8407 6.77271V11.6818L9.84745 11.6909Z" fill="#364B44"/>
</g>
<defs>
<clipPath id="clip0">
<rect width="39.3103" height="12" fill="white" transform="translate(0.315155)"/>
</clipPath>
</defs>
</svg>
