<svg width="22" height="22" viewBox="0 0 22 22" fill="none" xmlns="http://www.w3.org/2000/svg">
<path d="M6.71429 11C6.71429 12.1367 7.16582 13.2267 7.96955 14.0305C8.77328 14.8342 9.86337 15.2857 11 15.2857C12.1367 15.2857 13.2267 14.8342 14.0305 14.0305C14.8342 13.2267 15.2857 12.1367 15.2857 11C15.2857 9.86337 14.8342 8.77328 14.0305 7.96955C13.2267 7.16582 12.1367 6.71429 11 6.71429C9.86337 6.71429 8.77328 7.16582 7.96955 7.96955C7.16582 8.77328 6.71429 9.86337 6.71429 11V11Z" stroke="white" stroke-width="1.5" stroke-linecap="round" stroke-linejoin="round"/>
<path d="M11 1V3.85714" stroke="white" stroke-width="1.5" stroke-linecap="round" stroke-linejoin="round"/>
<path d="M11 18.1429V21" stroke="white" stroke-width="1.5" stroke-linecap="round" stroke-linejoin="round"/>
<path d="M21 11H18.1429" stroke="white" stroke-width="1.5" stroke-linecap="round" stroke-linejoin="round"/>
<path d="M3.85714 11H1" stroke="white" stroke-width="1.5" stroke-linecap="round" stroke-linejoin="round"/>
<path d="M18.0705 3.9295L16.0505 5.9495" stroke="white" stroke-width="1.5" stroke-linecap="round" stroke-linejoin="round"/>
<path d="M5.94857 16.0515L3.92857 18.0715" stroke="white" stroke-width="1.5" stroke-linecap="round" stroke-linejoin="round"/>
<path d="M18.0705 18.0715L16.0505 16.0515" stroke="white" stroke-width="1.5" stroke-linecap="round" stroke-linejoin="round"/>
<path d="M5.94857 5.9495L3.92857 3.9295" stroke="white" stroke-width="1.5" stroke-linecap="round" stroke-linejoin="round"/>
</svg>
